<svg width="52" height="52" viewBox="0 0 52 52" fill="none" xmlns="http://www.w3.org/2000/svg">
<path d="M1.62496 16.25H50.3749C51.2719 16.25 51.9999 15.522 51.9999 14.6251C51.9999 13.728 51.2718 13.0001 50.3749 13.0001H1.62496C0.727922 13.0001 0 13.7281 0 14.6251C0 15.522 0.728057 16.25 1.62496 16.25Z" fill="white"/>
<path d="M50.3749 24.3751H1.62496C0.727922 24.3751 0 25.1031 0 26C0 26.8969 0.728057 27.625 1.62496 27.625H50.3749C51.2719 27.625 51.9999 26.8969 51.9999 26C51.9999 25.1031 51.2719 24.3751 50.3749 24.3751Z" fill="white"/>
<path d="M50.3749 35.75H17.875C16.9779 35.75 16.25 36.4781 16.25 37.375C16.25 38.272 16.9781 38.9999 17.875 38.9999H50.3749C51.272 38.9999 51.9999 38.2719 51.9999 37.375C52 36.478 51.272 35.75 50.3749 35.75Z" fill="white"/>
</svg>
